# xmcd CD database file generated by Grip 3.2.0
# 
# Track frame offsets:
#       150
#       12586
#       23531
#       36355
#       46490
#       56919
#       68994
#       80465
#       90429
#       98780
#       108136
#       118277
# 
# Disc length: 1732 seconds
# 
# Revision: 1
# Processed by: cddbd v1.5.1PL0 Copyright (c) Steve Scherf et al.
# Submitted via: Grip 3.2.0
# 
DISCID=9a06c20c
DTITLE=Johnny Cash - Platinum and Gold Collection
DYEAR=1900
DGENRE=Country
TTITLE0=I walk the line
TTITLE1=Cry! Cry! Cry!
TTITLE2=Folsom Prison Blues
TTITLE3=Get Rhythm
TTITLE4=There You Go
TTITLE5=Home Of The Blues
TTITLE6=Big River
TTITLE7=Ballad of A Teenage Queen
TTITLE8=Guess Things Happen That Way
TTITLE9=Luther Played The Boogie
TTITLE10=Hey Porter!
TTITLE11=Thanks A Lot
EXTD=
EXTT0=
EXTT1=
EXTT2=
EXTT3=
EXTT4=
EXTT5=
EXTT6=
EXTT7=
EXTT8=
EXTT9=
EXTT10=
EXTT11=
PLAYORDER=
